<svg xmlns="http://www.w3.org/2000/svg" version="1.1" xmlns:xlink="http://www.w3.org/1999/xlink" xmlns:svgjs="http://svgjs.dev/svgjs" width="128" height="128" viewBox="0 0 128 128"><g transform="matrix(0.44782608695652176,0,0,0.44782608695652176,35.33913043478261,12.5)"><svg viewBox="0 0 125 225" data-background-color="#ffffff" preserveAspectRatio="xMidYMid meet" height="230" width="128" xmlns="http://www.w3.org/2000/svg" xmlns:xlink="http://www.w3.org/1999/xlink"><g id="tight-bounds" transform="matrix(1,0,0,1,0,0)"><svg viewBox="0 0 125 225" height="225" width="125"><g><svg></svg></g><g><svg viewBox="0 0 125 225" height="225" width="125"><g><path d="M8.188 130.945l1.455 1.82-0.727-2.366c-0.182-1.092-1.456 0.182-0.728 0.546M9.825 129.854c0.546 0.91 1.092 1.82 1.092 2.729 0 1.274 1.092 1.82 2.001 2.183-1.274-1.456-2.001-5.459-3.093-4.912M79.694 52.707c3.093 0 6.004-0.364 9.28 0.363 8.006 2.001 14.738 6.004 19.287 11.645l12.736 20.379c0.546 5.095 1.638 10.735 1.456 16.921 1.274 0 1.092-1.82 2.547-2.183-1.456 3.639-2.183 8.188-2.547 13.464-0.91-2.911 0-7.278 0.182-9.643-1.274 2.001-2.001 0.546-2.002-0.364 0.182-1.456-0.546-1.274-1.092-1.82-2.001-1.82-3.275-3.821-4.73-6.914 0.91-2.365 1.092-5.822-1.82-7.642-0.91-0.546-2.001-1.456-2.547-2.911-0.728-2.001-2.001-4.367-1.638-7.46 0.182-0.91-2.729 2.001-4.366 0.728-7.096-4.913-14.192-10.553-22.744-15.284-4.549 0-7.824-1.638-9.462-3.639-1.456-1.82-0.364-4.185 1.82-4.367 1.274 0 2.729-0.364 3.821 0.364 0.182-0.728 0.91-1.638 1.819-1.637M61.681 48.522l0.364 0.182c1.82 0.364 2.729 2.911 4.731 2.001 0 1.274 0.182 2.547-0.182 3.457-0.546 1.456-2.183 1.456-3.457 1.456-12.191-0.728-19.287 4.367-26.747 8.733-2.001 1.274-4.185 2.183-5.822 3.821-7.824 7.278-16.376 14.01-18.377 27.475l-1.638 14.92c-0.182 1.638-2.001 3.275-1.637 5.276l1.273 8.916c-1.274-1.274-2.001 0.364-1.637 1.092 0.182 0.546 0.91 2.365 2.001 0.727 1.456 2.729 2.911 8.006 4.913 10.372 6.186 7.278 14.192 13.828 20.742 20.378 1.638-0.364 2.911-0.364 3.275-1.456 0.546 1.092-0.546 2.183-1.455 2.366 2.911 1.82 6.186 3.457 10.553 3.821 5.64 0.364 10.917 1.274 15.829 2.547 2.547-0.728 5.095-1.092 7.824-1.274 0.91 0 1.456-1.456 2.548-1.819l0.182-1.82c1.092 1.638 0.91-0.546 0.182-1.637 1.274 1.092 1.638 2.001 2.183 2.729 0-0.546 1.456-2.547 1.456-0.182l0.363-2.365c0.546-0.364 0.728 2.001 1.274 0.364 0.546-1.638 1.638-0.364 2.729-0.91-0.364 0.728-0.182 2.183 1.092 1.274l1.456-1.274c0.91 2.183 2.365 1.274 3.093 0.91 8.006-5.095 16.012-11.099 23.653-17.104l-0.182 2.366 0.91-2.911c0.91 0.91 1.638 0.182 2.002-0.364 1.092-1.82 2.547-3.639 4.912-5.277-2.911 7.824-6.368 14.01-10.735 19.105l-1.819 2.183c0 1.274-0.364 2.911-1.82 3.093-0.728 0.182-2.183-0.364-3.275 0.728-0.546 0.728 1.274 2.183-0.182 1.092-1.274-0.91-2.547 0-4.003 0.364-1.092 0.364 0.728 1.456 1.092 2.183 0.364 0.728 0.728 1.456 0.546 2.366l-2.002-2.184c-2.365 1.274-3.821 3.639-5.822 5.459-0.91 0.728-0.546 2.001-0.546 3.093-1.274 0-2.729-0.364-3.457 0.364-0.546 0.728-0.364 1.82-0.364 2.911-1.82-0.182-2.001-2.911-3.639-2.365-1.638 0.364-3.457 0.546-4.913 1.455 1.092 2.183-1.82 0.91-1.455 1.274-2.729-1.638-5.095-2.911-8.006-1.82-6.186-2.001-13.828-1.092-19.469-0.364 0-0.91 0.182-1.82-0.182-2.001-0.364 0.91-1.456 0.546-1.273 0.546-3.457-2.365-6.914-3.821-10.553-5.823-3.275 0.364-6.368-1.274-7.278-2.183-2.547-2.365-5.459-1.092-7.824-1.638-5.095-1.274-6.914-6.55-7.46-10.189-0.364-1.82-1.82-2.547-2.366-2.365-2.365-7.642-6.004-14.556-8.915-21.652-0.728-1.82-0.546-3.639-0.546-5.641 0.91 0.364 1.82 0.182 1.638-1.091-0.91-6.004-3.093-10.553-5.459-14.92 1.274-6.186 1.456-13.464 4.367-18.923 2.547-4.913 7.278-7.46 10.553-11.645 1.092-1.456 1.092-3.457 2.183-4.731 3.639-3.639 7.278-7.46 11.281-10.735 1.82-1.456 4.003 0 6.732-0.546 0.91-3.275 4.549-6.186 8.006-5.276 1.456 0.364 4.367-3.457 5.277-3.821 1.456-0.546 0.728 1.456 0.728 2.729 3.457-2.729 8.188-4.185 12.554-5.822" fill="#0063db" fill-rule="nonzero" stroke="none" stroke-width="1" stroke-linecap="butt" stroke-linejoin="miter" stroke-miterlimit="10" stroke-dasharray="" stroke-dashoffset="0" font-family="none" font-weight="none" font-size="none" text-anchor="none" style="mix-blend-mode: normal" data-fill-palette-color="tertiary"></path></g><g transform="matrix(1,0,0,1,39.325,98.74371657754011)"><svg viewBox="0 0 46.35 27.51256684491979" height="27.51256684491979" width="46.35"><g><svg viewBox="0 0 46.35 27.51256684491979" height="27.51256684491979" width="46.35"><g><svg viewBox="0 0 46.35 27.51256684491979" height="27.51256684491979" width="46.35"><g><svg viewBox="0 0 46.35 27.51256684491979" height="27.51256684491979" width="46.35"><g><svg viewBox="0 0 46.35 27.51256684491979" height="27.51256684491979" width="46.35"><g transform="matrix(1,0,0,1,0,0)"><svg width="46.35" viewBox="-0.2 -33.3 56.099999999999994 33.3" height="27.51256684491979" data-palette-color="#0063db"><path d="M53.7-33.3Q54.75-33.3 55.33-32.98 55.9-32.65 55.9-32.05L55.9-32.05Q55.9-31.8 55.75-31.4L55.75-31.4Q55.6-30.95 55.33-30.73 55.05-30.5 54.5-30.15L54.5-30.15Q53.7-29.7 53.23-29.15 52.75-28.6 52.4-27.45L52.4-27.45 46.3-5.95Q46.1-5.3 46.1-4.7L46.1-4.7Q46.1-4.15 46.28-3.78 46.45-3.4 46.75-2.9L46.75-2.9Q46.95-2.65 47.1-2.38 47.25-2.1 47.25-1.8L47.25-1.8Q47.25-1.7 47.15-1.3L47.15-1.3Q46.95-0.65 46.23-0.35 45.5-0.05 44.15-0.05L44.15-0.05 32.4-0.05Q31.35-0.05 30.78-0.4 30.2-0.75 30.2-1.35L30.2-1.35Q30.2-1.65 30.35-2L30.35-2Q30.5-2.35 30.78-2.63 31.05-2.9 31.28-3.03 31.5-3.15 31.6-3.25L31.6-3.25Q32.4-3.7 32.9-4.25 33.4-4.8 33.75-5.95L33.75-5.95 37.55-19.45 24.6-3.4Q23-1.45 22.03-0.73 21.05 0 19.8 0L19.8 0Q18.6 0 17.93-0.78 17.25-1.55 16.7-3.4L16.7-3.4 12-18.85 8.3-5.9Q8.1-5.25 8.1-4.65L8.1-4.65Q8.1-4.05 8.28-3.65 8.45-3.25 8.8-2.8L8.8-2.8Q9.25-2.15 9.25-1.75L9.25-1.75Q9.25-1.65 9.15-1.25L9.15-1.25Q8.95-0.55 8.25-0.28 7.55 0 6.15 0L6.15 0 2 0Q0.95 0 0.38-0.35-0.2-0.7-0.2-1.3L-0.2-1.3Q-0.2-1.6-0.05-1.95L-0.05-1.95Q0.15-2.5 0.6-2.8 1.05-3.1 1.15-3.15L1.15-3.15Q1.95-3.65 2.45-4.17 2.95-4.7 3.3-5.9L3.3-5.9 9.4-27.5 8.6-30.15Q8.35-30.9 8.35-31.6L8.35-31.6Q8.35-32.5 8.93-32.9 9.5-33.3 10.7-33.3L10.7-33.3 18.45-33.3Q19.95-33.3 20.68-32.65 21.4-32 21.85-30.4L21.85-30.4 26.85-13.8 40.4-30.65Q41.7-32.25 42.95-32.77 44.2-33.3 46.25-33.3L46.25-33.3 53.7-33.3Z" opacity="1" transform="matrix(1,0,0,1,0,0)" fill="#0063db" class="undefined-text-0" data-fill-palette-color="primary" id="text-0"></path></svg></g></svg></g></svg></g></svg></g><g></g></svg></g></svg></g></svg></g><defs></defs></svg><rect width="125" height="225" fill="none" stroke="none" visibility="hidden"></rect></g></svg></g></svg>