<svg xmlns="http://www.w3.org/2000/svg" version="1.1" xmlns:xlink="http://www.w3.org/1999/xlink" xmlns:svgjs="http://svgjs.dev/svgjs" width="1000" height="1125" viewBox="0 0 1000 1125"><g transform="matrix(1,0,0,1,1.7053025658242404e-13,0)"><svg viewBox="0 0 320 360" data-background-color="#ffffff" preserveAspectRatio="xMidYMid meet" height="1125" width="1000" xmlns="http://www.w3.org/2000/svg" xmlns:xlink="http://www.w3.org/1999/xlink"><g id="tight-bounds" transform="matrix(1,0,0,1,0,0)"><svg viewBox="0 0 320 360" height="360" width="320"><g><svg></svg></g><g><svg viewBox="0 0 320 360" height="360" width="320"><g><path xmlns="http://www.w3.org/2000/svg" d="M20.961 227.22l3.726 4.658-1.863-6.056c-0.466-2.795-3.726 0.466-1.863 1.398M25.153 224.425c1.397 2.329 2.795 4.658 2.795 6.987 0 3.261 2.795 4.658 5.123 5.589-3.261-3.726-5.124-13.974-7.918-12.576M204.017 26.929c7.918 0 15.371-0.932 23.756 0.931 20.495 5.124 37.729 15.371 49.374 29.811l32.606 52.169c1.397 13.042 4.192 27.482 3.726 43.319 3.261 0 2.795-4.658 6.521-5.59-3.726 9.316-5.59 20.961-6.521 34.469-2.329-7.453 0-18.632 0.466-24.687-3.261 5.124-5.124 1.397-5.124-0.932 0.466-3.726-1.397-3.261-2.795-4.658-5.124-4.658-8.384-9.782-12.11-17.7 2.329-6.055 2.795-14.905-4.658-19.563-2.329-1.397-5.124-3.726-6.521-7.453-1.863-5.124-5.124-11.179-4.193-19.097 0.466-2.329-6.987 5.124-11.179 1.863-18.166-12.576-36.332-27.016-58.224-39.127-11.645 0-20.029-4.192-24.221-9.316-3.726-4.658-0.932-10.713 4.658-11.179 3.261 0 6.987-0.932 9.782 0.932 0.466-1.863 2.329-4.192 4.657-4.192M157.904 16.215l0.932 0.466c4.658 0.932 6.987 7.453 12.11 5.124 0 3.261 0.466 6.521-0.466 8.85-1.397 3.726-5.59 3.726-8.85 3.726-31.208-1.863-49.374 11.179-68.471 22.358-5.124 3.261-10.713 5.59-14.906 9.782-20.029 18.632-41.921 35.866-47.045 70.335l-4.192 38.195c-0.466 4.192-5.124 8.384-4.192 13.508l3.26 22.824c-3.261-3.261-5.124 0.932-4.192 2.795 0.466 1.397 2.329 6.055 5.124 1.863 3.726 6.987 7.453 20.495 12.576 26.55 15.837 18.632 36.332 35.4 53.101 52.169 4.192-0.932 7.453-0.932 8.384-3.727 1.397 2.795-1.397 5.59-3.726 6.056 7.453 4.658 15.837 8.85 27.016 9.781 14.44 0.932 27.948 3.261 40.524 6.522 6.521-1.863 13.042-2.795 20.029-3.261 2.329 0 3.726-3.726 6.521-4.658l0.466-4.658c2.795 4.192 2.329-1.397 0.466-4.192 3.261 2.795 4.192 5.124 5.589 6.987 0-1.397 3.726-6.521 3.727-0.466l0.931-6.055c1.397-0.932 1.863 5.124 3.261 0.931 1.397-4.192 4.192-0.932 6.987-2.329-0.932 1.863-0.466 5.59 2.794 3.261l3.727-3.261c2.329 5.59 6.055 3.261 7.918 2.329 20.495-13.042 40.99-28.413 60.553-43.784l-0.466 6.055 2.329-7.453c2.329 2.329 4.192 0.466 5.124-0.931 2.795-4.658 6.521-9.316 12.577-13.508-7.453 20.029-16.303 35.866-27.482 48.908l-4.658 5.59c0 3.261-0.932 7.453-4.658 7.918-1.863 0.466-5.59-0.932-8.384 1.863-1.397 1.863 3.261 5.59-0.466 2.795-3.261-2.329-6.521 0-10.248 0.932-2.795 0.932 1.863 3.726 2.795 5.589 0.932 1.863 1.863 3.726 1.398 6.056l-5.124-5.59c-6.055 3.261-9.782 9.316-14.906 13.974-2.329 1.863-1.397 5.124-1.397 7.918-3.261 0-6.987-0.932-8.85 0.932-1.397 1.863-0.932 4.658-0.932 7.453-4.658-0.466-5.124-7.453-9.315-6.056-4.192 0.932-8.85 1.397-12.577 3.727 2.795 5.59-4.658 2.329-3.726 3.26-6.987-4.192-13.042-7.453-20.495-4.658-15.837-5.124-35.4-2.795-49.84-0.931 0-2.329 0.466-4.658-0.466-5.124-0.932 2.329-3.726 1.397-3.26 1.397-8.85-6.055-17.7-9.782-27.016-14.905-8.384 0.932-16.303-3.261-18.632-5.59-6.521-6.055-13.974-2.795-20.029-4.192-13.042-3.261-17.7-16.769-19.098-26.084-0.932-4.658-4.658-6.521-6.055-6.056-6.055-19.563-15.371-37.263-22.824-55.429-1.863-4.658-1.397-9.316-1.397-14.44 2.329 0.932 4.658 0.466 4.192-2.794-2.329-15.371-7.918-27.016-13.974-38.195 3.261-15.837 3.726-34.469 11.179-48.443 6.521-12.576 18.632-19.098 27.016-29.811 2.795-3.726 2.795-8.85 5.59-12.11 9.316-9.316 18.632-19.098 28.879-27.482 4.658-3.726 10.247 0 17.234-1.397 2.329-8.384 11.645-15.837 20.495-13.508 3.726 0.932 11.179-8.85 13.508-9.782 3.726-1.397 1.863 3.726 1.863 6.987 8.85-6.987 20.961-10.713 32.14-14.906" fill="#0063db" fill-rule="nonzero" stroke="none" stroke-width="1" stroke-linecap="butt" stroke-linejoin="miter" stroke-miterlimit="10" stroke-dasharray="" stroke-dashoffset="0" font-family="none" font-weight="none" font-size="none" text-anchor="none" style="mix-blend-mode: normal" data-fill-palette-color="tertiary"></path></g><g transform="matrix(1,0,0,1,64,155.75757575757575)"><svg viewBox="0 0 192 48.48484848484849" height="48.48484848484849" width="192"><g><svg viewBox="0 0 192 48.48484848484849" height="48.48484848484849" width="192"><g><svg viewBox="0 0 192 48.48484848484849" height="48.48484848484849" width="192"><g><svg viewBox="0 0 192 48.48484848484849" height="48.48484848484849" width="192"><g><svg viewBox="0 0 192 48.48484848484849" height="48.48484848484849" width="192" id="textblock"><g><svg viewBox="0 0 192 48.48484848484849" height="48.48484848484849" width="192"><g transform="matrix(1,0,0,1,0,0)"><svg width="192" viewBox="-0.20000000298023224 -33.29999923706055 133.63999938964844 33.75" height="48.48484848484849" data-palette-color="#0063db"><path d="M53.7-33.3Q54.75-33.3 55.33-32.98 55.9-32.65 55.9-32.05L55.9-32.05Q55.9-31.8 55.75-31.4L55.75-31.4Q55.6-30.95 55.33-30.73 55.05-30.5 54.5-30.15L54.5-30.15Q53.7-29.7 53.23-29.15 52.75-28.6 52.4-27.45L52.4-27.45 46.3-5.95Q46.1-5.3 46.1-4.7L46.1-4.7Q46.1-4.15 46.28-3.78 46.45-3.4 46.75-2.9L46.75-2.9Q46.95-2.65 47.1-2.38 47.25-2.1 47.25-1.8L47.25-1.8Q47.25-1.7 47.15-1.3L47.15-1.3Q46.95-0.65 46.23-0.35 45.5-0.05 44.15-0.05L44.15-0.05 32.4-0.05Q31.35-0.05 30.78-0.4 30.2-0.75 30.2-1.35L30.2-1.35Q30.2-1.65 30.35-2L30.35-2Q30.5-2.35 30.78-2.63 31.05-2.9 31.28-3.03 31.5-3.15 31.6-3.25L31.6-3.25Q32.4-3.7 32.9-4.25 33.4-4.8 33.75-5.95L33.75-5.95 37.55-19.45 24.6-3.4Q23-1.45 22.03-0.73 21.05 0 19.8 0L19.8 0Q18.6 0 17.93-0.78 17.25-1.55 16.7-3.4L16.7-3.4 12-18.85 8.3-5.9Q8.1-5.25 8.1-4.65L8.1-4.65Q8.1-4.05 8.28-3.65 8.45-3.25 8.8-2.8L8.8-2.8Q9.25-2.15 9.25-1.75L9.25-1.75Q9.25-1.65 9.15-1.25L9.15-1.25Q8.95-0.55 8.25-0.28 7.55 0 6.15 0L6.15 0 2 0Q0.95 0 0.38-0.35-0.2-0.7-0.2-1.3L-0.2-1.3Q-0.2-1.6-0.05-1.95L-0.05-1.95Q0.15-2.5 0.6-2.8 1.05-3.1 1.15-3.15L1.15-3.15Q1.95-3.65 2.45-4.17 2.95-4.7 3.3-5.9L3.3-5.9 9.4-27.5 8.6-30.15Q8.35-30.9 8.35-31.6L8.35-31.6Q8.35-32.5 8.93-32.9 9.5-33.3 10.7-33.3L10.7-33.3 18.45-33.3Q19.95-33.3 20.68-32.65 21.4-32 21.85-30.4L21.85-30.4 26.85-13.8 40.4-30.65Q41.7-32.25 42.95-32.77 44.2-33.3 46.25-33.3L46.25-33.3 53.7-33.3ZM96.95-33.3Q98-33.3 98.57-32.95 99.15-32.6 99.15-32.05L99.15-32.05Q99.15-31.8 99-31.4L99-31.4Q98.85-31.05 98.57-30.78 98.3-30.5 98.07-30.38 97.85-30.25 97.75-30.15L97.75-30.15Q96.95-29.7 96.45-29.15 95.95-28.6 95.6-27.45L95.6-27.45 89.45-5.9Q89.25-5.25 89.25-4.65L89.25-4.65Q89.25-4.05 89.42-3.7 89.6-3.35 89.95-2.8L89.95-2.8Q90-2.75 90.22-2.43 90.45-2.1 90.45-1.75L90.45-1.75Q90.45-1.65 90.35-1.25L90.35-1.25Q90.1-0.55 89.4-0.28 88.7 0 87.3 0L87.3 0 75.55 0Q74.5 0 73.92-0.35 73.35-0.7 73.35-1.3L73.35-1.3Q73.35-1.6 73.5-1.95L73.5-1.95Q73.7-2.35 74.05-2.63 74.4-2.9 74.75-3.1L74.75-3.1Q75.55-3.55 76.05-4.13 76.55-4.7 76.9-5.9L76.9-5.9 79.3-14.25 70.45-14.25 68.05-5.9Q67.85-5.25 67.85-4.65L67.85-4.65Q67.85-4.05 68.02-3.7 68.2-3.35 68.55-2.8L68.55-2.8Q68.6-2.75 68.82-2.43 69.05-2.1 69.05-1.75L69.05-1.75Q69.05-1.65 68.95-1.25L68.95-1.25Q68.7-0.55 68-0.28 67.3 0 65.9 0L65.9 0 54.15 0Q53.1 0 52.52-0.35 51.95-0.7 51.95-1.3L51.95-1.3Q51.95-1.6 52.1-1.95L52.1-1.95Q52.3-2.35 52.65-2.63 53-2.9 53.35-3.1L53.35-3.1Q54.15-3.55 54.65-4.13 55.15-4.7 55.5-5.9L55.5-5.9 61.65-27.45Q61.85-28.1 61.85-28.7L61.85-28.7Q61.85-29.25 61.67-29.63 61.5-30 61.2-30.5L61.2-30.5Q61-30.75 60.85-31.03 60.7-31.3 60.7-31.6L60.7-31.6Q60.7-31.7 60.8-32.1L60.8-32.1Q61-32.75 61.7-33.02 62.4-33.3 63.8-33.3L63.8-33.3 75.55-33.3Q76.6-33.3 77.17-32.95 77.75-32.6 77.75-32.05L77.75-32.05Q77.75-31.8 77.6-31.4L77.6-31.4Q77.45-31.05 77.17-30.78 76.9-30.5 76.67-30.38 76.45-30.25 76.35-30.15L76.35-30.15Q75.55-29.7 75.05-29.15 74.55-28.6 74.2-27.45L74.2-27.45 71.85-19.25 80.7-19.25 83.05-27.45Q83.25-28.1 83.25-28.7L83.25-28.7Q83.25-29.25 83.07-29.63 82.9-30 82.6-30.5L82.6-30.5Q82.4-30.75 82.25-31.03 82.1-31.3 82.1-31.6L82.1-31.6Q82.1-31.7 82.2-32.1L82.2-32.1Q82.4-32.75 83.1-33.02 83.8-33.3 85.2-33.3L85.2-33.3 96.95-33.3ZM133.15-23.15Q132.34-20.25 130.15-18.63 127.95-17 124.6-16.6L124.6-16.6Q127-16.4 128.19-15.2 129.4-14 129.4-12.05L129.4-12.05Q129.4-11.3 129.15-10.2L129.15-10.2 128.59-7.75Q128.5-7.25 128.5-7.05L128.5-7.05Q128.5-6.4 128.8-6.08 129.09-5.75 129.65-5.75L129.65-5.75Q130.69-5.75 131.17-5.45 131.65-5.15 131.5-4.35L131.5-4.35Q131.3-3.2 130.3-2.1 129.3-1 127.47-0.28 125.65 0.45 123.05 0.45L123.05 0.45Q119.75 0.45 117.8-1.03 115.85-2.5 115.85-5.25L115.85-5.25Q115.85-6.3 116.15-7.5L116.15-7.5 116.95-10.7Q117.15-11.35 117.15-12.05L117.15-12.05Q117.15-13.2 116.37-13.7 115.6-14.2 113.9-14.2L113.9-14.2 112-14.2 109.7-5.9Q109.6-5.6 109.6-5.15L109.6-5.15Q109.6-4.45 109.95-3.95 110.3-3.45 110.9-2.9L110.9-2.9Q111.35-2.55 111.6-2.23 111.85-1.9 111.85-1.55L111.85-1.55Q111.85-0.7 111.05-0.35 110.25 0 108.7 0L108.7 0 96.15 0Q94.85 0 94.2-0.48 93.55-0.95 93.75-1.8L93.75-1.8Q93.85-2.25 94.12-2.53 94.4-2.8 94.95-3.15L94.95-3.15Q95.8-3.65 96.3-4.2 96.8-4.75 97.1-5.9L97.1-5.9 103.2-27.45Q103.4-28.1 103.4-28.7L103.4-28.7Q103.4-29.25 103.22-29.63 103.05-30 102.75-30.5L102.75-30.5Q102.3-31.15 102.3-31.55L102.3-31.55Q102.3-31.7 102.4-32.1L102.4-32.1Q102.6-32.75 103.27-33.02 103.95-33.3 105.35-33.3L105.35-33.3 122.1-33.3Q125.55-33.3 128.12-32.25 130.69-31.2 132.07-29.38 133.44-27.55 133.44-25.25L133.44-25.25Q133.44-24.2 133.15-23.15L133.15-23.15ZM120.35-23.65Q120.6-24.8 120.6-25.4L120.6-25.4Q120.6-28.05 117.7-28.05L117.7-28.05 115.6-28.05 113.4-19.2 115.5-19.2Q117.45-19.2 118.57-20.15 119.7-21.1 120.35-23.65L120.35-23.65Z" opacity="1" transform="matrix(1,0,0,1,0,0)" fill="#0063db" class="undefined-text-0" data-fill-palette-color="primary" id="text-0"></path></svg></g></svg></g></svg></g></svg></g><g></g></svg></g></svg></g></svg></g></svg></g><defs></defs></svg><rect width="320" height="360" fill="none" stroke="none" visibility="hidden"></rect></g></svg></g></svg>